<mxfile host="65bd71144e">
    <diagram id="q1xPsVnEaYwgn2Bqr83j" name="Page-1">
        <mxGraphModel dx="989" dy="1530" grid="0" gridSize="10" guides="1" tooltips="1" connect="1" arrows="1" fold="1" page="1" pageScale="1" pageWidth="1169" pageHeight="827" math="0" shadow="0">
            <root>
                <mxCell id="0"/>
                <mxCell id="1" parent="0"/>
                <mxCell id="2" value="clientes" style="swimlane;fontStyle=0;childLayout=stackLayout;horizontal=1;startSize=26;fillColor=none;horizontalStack=0;resizeParent=1;resizeParentMax=0;resizeLast=0;collapsible=1;marginBottom=0;rounded=1;sketch=1;" parent="1" vertex="1">
                    <mxGeometry x="356" y="-138" width="103" height="52" as="geometry"/>
                </mxCell>
                <mxCell id="3" value="id_cliente" style="text;strokeColor=none;fillColor=none;align=left;verticalAlign=top;spacingLeft=4;spacingRight=4;overflow=hidden;rotatable=0;points=[[0,0.5],[1,0.5]];portConstraint=eastwest;rounded=1;sketch=1;" parent="2" vertex="1">
                    <mxGeometry y="26" width="103" height="26" as="geometry"/>
                </mxCell>
                <mxCell id="9" value="obras" style="swimlane;fontStyle=0;childLayout=stackLayout;horizontal=1;startSize=26;fillColor=none;horizontalStack=0;resizeParent=1;resizeParentMax=0;resizeLast=0;collapsible=1;marginBottom=0;rounded=1;sketch=1;" parent="1" vertex="1">
                    <mxGeometry x="518" y="163" width="95" height="78" as="geometry"/>
                </mxCell>
                <mxCell id="12" value="id_obra(pk)" style="text;strokeColor=none;fillColor=none;align=left;verticalAlign=top;spacingLeft=4;spacingRight=4;overflow=hidden;rotatable=0;points=[[0,0.5],[1,0.5]];portConstraint=eastwest;rounded=1;sketch=1;" parent="9" vertex="1">
                    <mxGeometry y="26" width="95" height="26" as="geometry"/>
                </mxCell>
                <mxCell id="14" value="id_cliente (fk)" style="text;strokeColor=none;fillColor=none;align=left;verticalAlign=top;spacingLeft=4;spacingRight=4;overflow=hidden;rotatable=0;points=[[0,0.5],[1,0.5]];portConstraint=eastwest;rounded=1;sketch=1;" parent="9" vertex="1">
                    <mxGeometry y="52" width="95" height="26" as="geometry"/>
                </mxCell>
                <mxCell id="15" value="dosificaciones" style="swimlane;fontStyle=0;childLayout=stackLayout;horizontal=1;startSize=26;fillColor=none;horizontalStack=0;resizeParent=1;resizeParentMax=0;resizeLast=0;collapsible=1;marginBottom=0;rounded=1;sketch=1;" parent="1" vertex="1">
                    <mxGeometry x="870" y="156" width="122" height="52" as="geometry"/>
                </mxCell>
                <mxCell id="16" value="id_dosificaciones" style="text;strokeColor=none;fillColor=none;align=left;verticalAlign=top;spacingLeft=4;spacingRight=4;overflow=hidden;rotatable=0;points=[[0,0.5],[1,0.5]];portConstraint=eastwest;rounded=1;sketch=1;" parent="15" vertex="1">
                    <mxGeometry y="26" width="122" height="26" as="geometry"/>
                </mxCell>
                <mxCell id="18" value="remitos" style="swimlane;fontStyle=0;childLayout=stackLayout;horizontal=1;startSize=26;fillColor=none;horizontalStack=0;resizeParent=1;resizeParentMax=0;resizeLast=0;collapsible=1;marginBottom=0;rounded=1;sketch=1;" parent="1" vertex="1">
                    <mxGeometry x="677" y="111" width="144" height="234" as="geometry"/>
                </mxCell>
                <mxCell id="47" value="id_remitos" style="text;strokeColor=none;fillColor=none;align=left;verticalAlign=top;spacingLeft=4;spacingRight=4;overflow=hidden;rotatable=0;points=[[0,0.5],[1,0.5]];portConstraint=eastwest;rounded=1;sketch=1;" vertex="1" parent="18">
                    <mxGeometry y="26" width="144" height="26" as="geometry"/>
                </mxCell>
                <mxCell id="26" value="fecha (pk)" style="text;strokeColor=none;fillColor=none;align=left;verticalAlign=top;spacingLeft=4;spacingRight=4;overflow=hidden;rotatable=0;points=[[0,0.5],[1,0.5]];portConstraint=eastwest;rounded=1;sketch=1;" parent="18" vertex="1">
                    <mxGeometry y="52" width="144" height="26" as="geometry"/>
                </mxCell>
                <mxCell id="39" value="cantidad" style="text;strokeColor=none;fillColor=none;align=left;verticalAlign=top;spacingLeft=4;spacingRight=4;overflow=hidden;rotatable=0;points=[[0,0.5],[1,0.5]];portConstraint=eastwest;rounded=1;sketch=1;" parent="18" vertex="1">
                    <mxGeometry y="78" width="144" height="26" as="geometry"/>
                </mxCell>
                <mxCell id="40" value="bombeo" style="text;strokeColor=none;fillColor=none;align=left;verticalAlign=top;spacingLeft=4;spacingRight=4;overflow=hidden;rotatable=0;points=[[0,0.5],[1,0.5]];portConstraint=eastwest;rounded=1;sketch=1;" parent="18" vertex="1">
                    <mxGeometry y="104" width="144" height="26" as="geometry"/>
                </mxCell>
                <mxCell id="19" value="id_dosificaciones (fk)" style="text;strokeColor=none;fillColor=none;align=left;verticalAlign=top;spacingLeft=4;spacingRight=4;overflow=hidden;rotatable=0;points=[[0,0.5],[1,0.5]];portConstraint=eastwest;rounded=1;sketch=1;" parent="18" vertex="1">
                    <mxGeometry y="130" width="144" height="26" as="geometry"/>
                </mxCell>
                <mxCell id="20" value="id_obra (fk)" style="text;strokeColor=none;fillColor=none;align=left;verticalAlign=top;spacingLeft=4;spacingRight=4;overflow=hidden;rotatable=0;points=[[0,0.5],[1,0.5]];portConstraint=eastwest;rounded=1;sketch=1;" parent="18" vertex="1">
                    <mxGeometry y="156" width="144" height="26" as="geometry"/>
                </mxCell>
                <mxCell id="34" value="id_chofer (fk)" style="text;strokeColor=none;fillColor=none;align=left;verticalAlign=top;spacingLeft=4;spacingRight=4;overflow=hidden;rotatable=0;points=[[0,0.5],[1,0.5]];portConstraint=eastwest;rounded=1;sketch=1;" parent="18" vertex="1">
                    <mxGeometry y="182" width="144" height="26" as="geometry"/>
                </mxCell>
                <mxCell id="27" value="id_motohormigonera (fk)" style="text;strokeColor=none;fillColor=none;align=left;verticalAlign=top;spacingLeft=4;spacingRight=4;overflow=hidden;rotatable=0;points=[[0,0.5],[1,0.5]];portConstraint=eastwest;rounded=1;sketch=1;" parent="18" vertex="1">
                    <mxGeometry y="208" width="144" height="26" as="geometry"/>
                </mxCell>
                <mxCell id="24" style="edgeStyle=none;rounded=1;sketch=1;html=1;" parent="1" source="19" target="16" edge="1">
                    <mxGeometry relative="1" as="geometry"/>
                </mxCell>
                <mxCell id="25" style="edgeStyle=none;rounded=1;sketch=1;html=1;" parent="1" source="20" target="12" edge="1">
                    <mxGeometry relative="1" as="geometry"/>
                </mxCell>
                <mxCell id="28" value="motohormigoneras" style="swimlane;fontStyle=0;childLayout=stackLayout;horizontal=1;startSize=26;fillColor=none;horizontalStack=0;resizeParent=1;resizeParentMax=0;resizeLast=0;collapsible=1;marginBottom=0;rounded=1;sketch=1;" parent="1" vertex="1">
                    <mxGeometry x="703" y="368" width="152" height="52" as="geometry"/>
                </mxCell>
                <mxCell id="29" value="id_motohormigonera" style="text;strokeColor=none;fillColor=none;align=left;verticalAlign=top;spacingLeft=4;spacingRight=4;overflow=hidden;rotatable=0;points=[[0,0.5],[1,0.5]];portConstraint=eastwest;rounded=1;sketch=1;" parent="28" vertex="1">
                    <mxGeometry y="26" width="152" height="26" as="geometry"/>
                </mxCell>
                <mxCell id="31" style="edgeStyle=none;rounded=1;sketch=1;html=1;" parent="1" source="27" target="28" edge="1">
                    <mxGeometry relative="1" as="geometry"/>
                </mxCell>
                <mxCell id="32" value="choferes" style="swimlane;fontStyle=0;childLayout=stackLayout;horizontal=1;startSize=26;fillColor=none;horizontalStack=0;resizeParent=1;resizeParentMax=0;resizeLast=0;collapsible=1;marginBottom=0;rounded=1;sketch=1;" parent="1" vertex="1">
                    <mxGeometry x="955" y="263" width="122" height="52" as="geometry"/>
                </mxCell>
                <mxCell id="33" value="id_chofer" style="text;strokeColor=none;fillColor=none;align=left;verticalAlign=top;spacingLeft=4;spacingRight=4;overflow=hidden;rotatable=0;points=[[0,0.5],[1,0.5]];portConstraint=eastwest;rounded=1;sketch=1;" parent="32" vertex="1">
                    <mxGeometry y="26" width="122" height="26" as="geometry"/>
                </mxCell>
                <mxCell id="35" style="edgeStyle=none;rounded=1;sketch=1;html=1;" parent="1" source="34" target="33" edge="1">
                    <mxGeometry relative="1" as="geometry"/>
                </mxCell>
                <mxCell id="37" value="0..n" style="edgeLabel;resizable=0;html=1;align=left;verticalAlign=top;rounded=1;sketch=1;" parent="1" connectable="0" vertex="1">
                    <mxGeometry x="642" y="185.00000000000006" as="geometry"/>
                </mxCell>
                <mxCell id="38" value="n..0" style="edgeLabel;resizable=0;html=1;align=left;verticalAlign=top;rounded=1;sketch=1;" parent="1" connectable="0" vertex="1">
                    <mxGeometry x="834" y="171.00000000000006" as="geometry"/>
                </mxCell>
                <mxCell id="41" value="remitos_facturas" style="swimlane;fontStyle=0;childLayout=stackLayout;horizontal=1;startSize=26;fillColor=none;horizontalStack=0;resizeParent=1;resizeParentMax=0;resizeLast=0;collapsible=1;marginBottom=0;rounded=1;sketch=1;" vertex="1" parent="1">
                    <mxGeometry x="906" y="-6" width="122" height="104" as="geometry"/>
                </mxCell>
                <mxCell id="42" value="id_r_f" style="text;strokeColor=none;fillColor=none;align=left;verticalAlign=top;spacingLeft=4;spacingRight=4;overflow=hidden;rotatable=0;points=[[0,0.5],[1,0.5]];portConstraint=eastwest;rounded=1;sketch=1;" vertex="1" parent="41">
                    <mxGeometry y="26" width="122" height="26" as="geometry"/>
                </mxCell>
                <mxCell id="45" value="id_remitos" style="text;strokeColor=none;fillColor=none;align=left;verticalAlign=top;spacingLeft=4;spacingRight=4;overflow=hidden;rotatable=0;points=[[0,0.5],[1,0.5]];portConstraint=eastwest;rounded=1;sketch=1;" vertex="1" parent="41">
                    <mxGeometry y="52" width="122" height="26" as="geometry"/>
                </mxCell>
                <mxCell id="46" value="id_facturas" style="text;strokeColor=none;fillColor=none;align=left;verticalAlign=top;spacingLeft=4;spacingRight=4;overflow=hidden;rotatable=0;points=[[0,0.5],[1,0.5]];portConstraint=eastwest;rounded=1;sketch=1;" vertex="1" parent="41">
                    <mxGeometry y="78" width="122" height="26" as="geometry"/>
                </mxCell>
                <mxCell id="43" value="facturas" style="swimlane;fontStyle=0;childLayout=stackLayout;horizontal=1;startSize=26;fillColor=none;horizontalStack=0;resizeParent=1;resizeParentMax=0;resizeLast=0;collapsible=1;marginBottom=0;rounded=1;sketch=1;" vertex="1" parent="1">
                    <mxGeometry x="903" y="-138" width="122" height="52" as="geometry"/>
                </mxCell>
                <mxCell id="44" value="id_facturas" style="text;strokeColor=none;fillColor=none;align=left;verticalAlign=top;spacingLeft=4;spacingRight=4;overflow=hidden;rotatable=0;points=[[0,0.5],[1,0.5]];portConstraint=eastwest;rounded=1;sketch=1;" vertex="1" parent="43">
                    <mxGeometry y="26" width="122" height="26" as="geometry"/>
                </mxCell>
                <mxCell id="49" style="edgeStyle=none;html=1;" edge="1" parent="1" source="44" target="46">
                    <mxGeometry relative="1" as="geometry"/>
                </mxCell>
                <mxCell id="50" style="edgeStyle=none;html=1;" edge="1" parent="1" source="47" target="45">
                    <mxGeometry relative="1" as="geometry"/>
                </mxCell>
                <mxCell id="51" style="edgeStyle=none;html=1;" edge="1" parent="1" source="3" target="44">
                    <mxGeometry relative="1" as="geometry"/>
                </mxCell>
                <mxCell id="52" value="1..n" style="edgeLabel;resizable=0;html=1;align=left;verticalAlign=top;rounded=1;sketch=1;" connectable="0" vertex="1" parent="1">
                    <mxGeometry x="677" y="-124.00000000000028" as="geometry"/>
                </mxCell>
                <mxCell id="53" style="edgeStyle=none;html=1;" edge="1" parent="1" source="3" target="14">
                    <mxGeometry relative="1" as="geometry">
                        <Array as="points">
                            <mxPoint x="408" y="228"/>
                        </Array>
                    </mxGeometry>
                </mxCell>
                <mxCell id="54" value="1..n" style="edgeLabel;resizable=0;html=1;align=left;verticalAlign=top;rounded=1;sketch=1;" connectable="0" vertex="1" parent="1">
                    <mxGeometry x="413" y="78.99999999999972" as="geometry"/>
                </mxCell>
            </root>
        </mxGraphModel>
    </diagram>
</mxfile>